# xmcd CD database file
#
# Track frame offsets:
#	150
#	19164
#	35557
#	43518
#	51601
#	67867
#	78265
#	92277
#	107645
#	124873
#	143541
#	161326
#	180644
#
# Disc length: 2643 seconds
#
# Revision: 0
# Processed by: cddbd v1.5.2PL0 Copyright (c) Steve Scherf et al.
# Submitted via: CDex 1.51
#
DISCID=9e0a510d
DTITLE=Landis Maitland-Whitelaw - Black Tie
DYEAR=1996
DGENRE=Jazz
TTITLE0=Hi Hon I'm Home
TTITLE1=Ninth Street
TTITLE2=Come to Me
TTITLE3=Sky, Earth and Sea
TTITLE4=Un protrait d'Alaine
TTITLE5=Walking Thro' the Heather
TTITLE6=Voice of an Angel
TTITLE7=From Dusk til Dawn
TTITLE8=I'm Crazy for You
TTITLE9=Wind in the Field
TTITLE10=North Country
TTITLE11=A Spanish Evening
TTITLE12=Malaguena
EXTD=YEAR: 1996
EXTT0=
EXTT1=
EXTT2=
EXTT3=
EXTT4=
EXTT5=
EXTT6=
EXTT7=
EXTT8=
EXTT9=
EXTT10=
EXTT11=
EXTT12=
PLAYORDER=
